Coordinates
version=1
nRows=22
nColumns=26
inDegrees=yes

Units are S.I. units (second, meters, Newtons, ...)
Angles are in degrees.

endheader
time	pelvis_tilt	pelvis_list	pelvis_rotation	pelvis_tx	pelvis_ty	pelvis_tz	hip_flexion_r	hip_adduction_r	hip_rotation_r	knee_angle_r	knee_angle_r_beta	ankle_angle_r	subtalar_angle_r	mtp_angle_r	hip_flexion_l	hip_adduction_l	hip_rotation_l	knee_angle_l	knee_angle_l_beta	ankle_angle_l	subtalar_angle_l	mtp_angle_l	lumbar_extension	lumbar_bending	lumbar_rotation
      0.00000000	     -2.18708530	      4.79890479	      2.73968872	      0.54589256	      0.86194940	     -0.04313431	     34.91578812	     -7.33100971	    -14.03864828	     13.48273281	      0.23531808	     -9.83077859	      0.00000000	      0.00000000	    -19.87043121	      8.27247003	     -3.95643284	      0.41412566	      0.00722786	      8.32112578	      0.00000000	      0.00000000	    -19.83007434	     -5.97743732	     -1.35766477
      0.01070707	     -2.20723059	      4.80451432	      2.52398334	      0.54640684	      0.85966489	     -0.04183123	     35.51795237	     -7.13181365	    -13.54615675	     15.06899461	      0.26300357	     -9.83173299	      0.00000000	      0.00000000	    -20.84045314	      8.17754836	     -4.05124772	      0.50502831	      0.00881441	      7.96305567	      0.00000000	      0.00000000	    -19.74065507	     -6.44188723	     -4.20463979
      0.02141414	     -2.20491462	      4.60646286	      2.26579161	      0.54750586	      0.85811288	     -0.04094152	     35.83021796	     -6.76176277	    -13.04220908	     16.47663477	      0.28757153	    -10.06847930	      0.00000000	      0.00000000	    -21.60417544	      7.91804800	     -4.34007729	      0.58333283	      0.01018108	      7.32075818	      0.00000000	      0.00000000	    -19.72318587	     -6.03119576	     -4.26544067
      0.03212121	     -1.94602270	      4.46716478	      2.08703574	      0.54897302	      0.85693004	     -0.03938514	     35.94692658	     -6.47744494	    -12.54760289	     18.60267229	      0.32467788	     -9.70540912	      0.00000000	      0.00000000	    -22.70586418	      7.56536305	     -4.58039982	      0.88715254	      0.01548373	      6.49402855	      0.00000000	      0.00000000	    -19.83905467	     -5.80129271	     -4.23981275
      0.04282828	     -1.73616595	      4.42419641	      1.78983050	      0.55070288	      0.85568605	     -0.03806134	     36.14119339	     -6.34646847	    -12.01581050	     20.91308379	      0.36500217	     -9.53638185	      0.00000000	      0.00000000	    -23.58042928	      7.37588946	     -4.83557338	      1.45651709	      0.02542102	      5.73383457	      0.00000000	      0.00000000	    -19.87578069	     -5.65185097	     -4.12129179
      0.05353535	     -1.49493135	      4.20349466	      1.52469466	      0.55292940	      0.85526683	     -0.03663966	     36.08523113	     -6.08815959	    -11.78297617	     23.08198630	      0.40285666	     -9.44633270	      0.00000000	      0.00000000	    -24.22367441	      6.95613418	     -5.48851461	      2.50184261	      0.04366539	      4.63637967	      0.00000000	      0.00000000	    -19.87060057	     -5.30697289	     -4.06882707
      0.06424242	     -1.24599712	      4.04891846	      1.39845534	      0.55500753	      0.85517752	     -0.03507150	     35.98001648	     -6.03132439	    -11.91845832	     25.27326306	      0.44110165	     -9.40265665	      0.00000000	      0.00000000	    -24.61440231	      6.50508583	     -6.06514149	      3.99409729	      0.06971015	      3.66323405	      0.00000000	      0.00000000	    -19.86748712	     -5.06394432	     -4.01629963
      0.07494949	     -1.01695249	      3.90975360	      1.31599843	      0.55717201	      0.85543139	     -0.03358531	     35.75651153	     -5.96130073	    -11.69619659	     27.34542794	      0.47726775	     -8.93333554	      0.00000000	      0.00000000	    -24.57030928	      5.98182434	     -6.77793459	      6.20989647	      0.10838314	      2.60719611	      0.00000000	      0.00000000	    -19.81364054	     -4.72572409	     -3.89426069
      0.08565657	     -0.86338534	      3.71099318	      1.16811693	      0.55974883	      0.85588302	     -0.03194757	     35.47930801	     -5.78370777	    -11.50696857	     29.27674362	      0.51097557	     -8.34085959	      0.00000000	      0.00000000	    -24.09438622	      5.33438528	     -7.87583049	      9.06953178	      0.15829319	      1.31436725	      0.00000000	      0.00000000	    -19.59582360	     -4.46142128	     -3.68186511
      0.09636364	     -0.58607022	      3.42528641	      1.06925995	      0.56240662	      0.85719882	     -0.03002014	     34.77147671	     -5.45055574	    -11.30179354	     30.78378202	      0.53727835	     -7.57962068	      0.00000000	      0.00000000	    -23.47217385	      4.47436995	     -9.12472415	     12.35418060	      0.21562113	     -0.10319877	      0.00000000	      0.00000000	    -19.56165406	     -4.06056203	     -3.52481664
      0.10707070	     -0.26633057	      3.13946685	      1.09745368	      0.56450669	      0.85886210	     -0.02855286	     33.85759354	     -5.24829412	    -11.49490331	     31.95324242	      0.55768929	     -6.68178585	      0.00000000	      0.00000000	    -22.49791576	      3.44365031	    -10.38430798	     16.21331817	      0.28297578	     -1.92553648	      0.00000000	      0.00000000	    -19.64768443	     -3.56933818	     -3.29504621
      0.11777780	     -0.01561535	      2.78635576	      1.01702040	      0.56653474	      0.86075194	     -0.02635710	     32.83306149	     -4.83082606	    -11.75945476	     32.78331040	      0.57217671	     -5.70352473	      0.00000000	      0.00000000	    -21.17677654	      2.20719911	    -11.92845422	     20.48459999	      0.35752372	     -3.70866605	      0.00000000	      0.00000000	    -19.71987071	     -3.13645288	     -2.94675378
      0.12848480	      0.16656933	      2.43303609	      1.03010229	      0.56811861	      0.86275059	     -0.02434964	     31.77776293	     -4.42011006	    -11.99755781	     33.42419369	      0.58336223	     -4.43472908	      0.00000000	      0.00000000	    -19.47450590	      0.84574799	    -13.06137065	     25.16608573	      0.43923106	     -5.70252187	      0.00000000	      0.00000000	    -19.67694910	     -2.78452263	     -2.66853127
      0.13919190	      0.12356307	      1.94694926	      1.27859704	      0.56936800	      0.86504887	     -0.02259160	     30.71050864	     -3.91188745	    -12.46188215	     33.47786847	      0.58429903	     -3.60556012	      0.00000000	      0.00000000	    -17.21747979	     -0.86159950	    -13.93685281	     30.19496572	      0.52700157	     -7.93580012	      0.00000000	      0.00000000	    -19.39825123	     -2.10744334	     -2.35292375
      0.14989900	      0.22507182	      1.16416336	      1.42623899	      0.57010332	      0.86739774	     -0.02019227	     29.32017657	     -2.91619288	    -12.98172391	     33.18980840	      0.57927143	     -2.69968619	      0.00000000	      0.00000000	    -14.94174646	     -2.83887538	    -14.31551700	     35.23230304	      0.61491969	    -10.11693666	      0.00000000	      0.00000000	    -19.54364763	     -1.33923390	     -2.07046205
      0.16060610	      0.32237713	      0.69296820	      1.54787794	      0.57038339	      0.86966153	     -0.01848607	     28.06905655	     -2.34850575	    -13.46012690	     33.05302690	      0.57688415	     -1.61382019	      0.00000000	      0.00000000	    -12.57103335	     -4.29604308	    -14.12826531	     40.09086752	      0.69971764	    -12.20027132	      0.00000000	      0.00000000	    -19.60242857	     -0.83456378	     -1.82011026
      0.17131310	      0.30554130	     -0.04959471	      1.71418969	      0.57049478	      0.87188193	     -0.01636732	     26.77156854	     -1.36326636	    -13.92025353	     32.61197207	      0.56918629	     -0.52914965	      0.00000000	      0.00000000	     -9.94242060	     -6.02633872	    -13.67641563	     44.78718730	      0.78168388	    -14.01136138	      0.00000000	      0.00000000	    -19.55593025	     -0.08359653	     -1.58498114
      0.18202020	      0.14315584	     -0.41577755	      2.09769520	      0.57015294	      0.87429431	     -0.01495408	     25.60506398	     -0.85035291	    -14.35770340	     31.91077788	      0.55694814	      0.04737393	      0.00000000	      0.00000000	     -7.11286657	     -7.06837165	    -12.56315660	     48.91960326	      0.85380815	    -15.22519200	      0.00000000	      0.00000000	    -19.43956015	      0.38878038	     -1.18801794
      0.19272730	      0.01800845	     -0.90434036	      2.48416760	      0.56919271	      0.87662408	     -0.01383065	     24.30065926	     -0.21726506	    -14.82263455	     31.07265532	      0.54232014	      0.66617862	      0.00000000	      0.00000000	     -4.04317794	     -7.99236939	    -11.01454932	     53.05101506	      0.92591488	    -15.69773403	      0.00000000	      0.00000000	    -19.44658462	      1.01902551	     -0.86434001
      0.20343430	     -0.30933015	     -1.07878314	      2.99215484	      0.56796626	      0.87882341	     -0.01312119	     23.29921907	     -0.00273630	    -15.37416410	     30.27971305	      0.52848069	      1.19919460	      0.00000000	      0.00000000	     -0.74657704	     -8.33525166	     -9.28888023	     56.61886780	      0.98818566	    -15.68075355	      0.00000000	      0.00000000	    -19.21311802	      1.33586707	     -0.37656545
      0.21414140	     -0.42600734	     -1.18323536	      3.56061540	      0.56646367	      0.88119345	     -0.01265296	     22.07347148	      0.10090633	    -16.05097506	     29.49473531	      0.51478024	      1.70501105	      0.00000000	      0.00000000	      2.21336702	     -8.36964974	     -7.47185474	     59.53599571	      1.03909915	    -15.44737081	      0.00000000	      0.00000000	    -19.21025585	      1.57190175	     -0.13979071
      0.22484850	     -0.84634597	     -1.28191089	      4.01098113	      0.56474861	      0.88304202	     -0.01233663	     21.28120154	      0.24210244	    -16.49072904	     28.74911741	      0.50176676	      2.08797856	      0.00000000	      0.00000000	      5.46418515	     -8.24325381	     -5.89048454	     62.03668242	      1.08274437	    -14.95459816	      0.00000000	      0.00000000	    -18.98426125	      1.74945973	      0.26264450
